<?xml version="1.0" encoding="UTF-8" standalone="no"?>
<svg
   id="Layer_1"
   data-name="Layer 1"
   viewBox="0 0 1560.2629 360.27348"
   version="1.1"
   sodipodi:docname="logo.svg"
   inkscape:version="1.2.2 (b0a8486541, 2022-12-01)"
   width="1560.2629"
   height="360.27347"
   xmlns:inkscape="http://www.inkscape.org/namespaces/inkscape"
   xmlns:sodipodi="http://sodipodi.sourceforge.net/DTD/sodipodi-0.dtd"
   xmlns:xlink="http://www.w3.org/1999/xlink"
   xmlns="http://www.w3.org/2000/svg"
   xmlns:svg="http://www.w3.org/2000/svg">
  <sodipodi:namedview
     id="namedview33"
     pagecolor="#ffffff"
     bordercolor="#666666"
     borderopacity="1.0"
     inkscape:pageshadow="2"
     inkscape:pageopacity="0.0"
     inkscape:pagecheckerboard="0"
     showgrid="false"
     inkscape:zoom="0.53461208"
     inkscape:cx="1340.2241"
     inkscape:cy="129.06555"
     inkscape:window-width="1920"
     inkscape:window-height="1043"
     inkscape:window-x="0"
     inkscape:window-y="0"
     inkscape:window-maximized="1"
     inkscape:current-layer="text3267"
     inkscape:showpageshadow="2"
     inkscape:deskcolor="#d1d1d1" />
  <defs
     id="defs4">
    <style
       id="style2">.cls-1{fill:#1d1d1b;}.cls-2{fill:#e9500e;}.cls-3{fill:#fff;}</style>
    <linearGradient
       id="linearGradient2882"
       inkscape:swatch="solid">
      <stop
         style="stop-color:#ffffff;stop-opacity:1;"
         offset="0"
         id="stop2880" />
    </linearGradient>
    <linearGradient
       inkscape:collect="always"
       xlink:href="#linearGradient2882"
       id="linearGradient2884"
       x1="123.61589"
       y1="627.40137"
       x2="670.289"
       y2="627.40137"
       gradientUnits="userSpaceOnUse" />
  </defs>
  <rect
     class="cls-2"
     width="233.93118"
     height="360.27347"
     id="rect18"
     x="0"
     y="0" />
  <g
     id="g1045"
     transform="matrix(0.22517108,0,0,0.22517108,56.507438,186.40023)">
    <g
       id="g3233"
       transform="translate(-232.76557,-827.81681)"
       style="fill:#ffffff;fill-opacity:1">
      <circle
         class="cls-2"
         cx="226.58835"
         cy="1056.0741"
         r="109.02696"
         id="circle8"
         style="fill:#ffffff;fill-opacity:1" />
      <circle
         class="cls-2"
         cx="680.64508"
         cy="817.00696"
         r="109.02696"
         id="circle10"
         style="fill:#ffffff;fill-opacity:1" />
      <circle
         class="cls-2"
         cx="656.08185"
         cy="1337.2672"
         r="109.02696"
         id="circle14"
         style="fill:#ffffff;fill-opacity:1" />
    </g>
    <g
       id="g3087"
       transform="translate(-232.76557,-827.81681)"
       style="fill:#ffffff;fill-opacity:1">
      <path
         class="cls-2"
         d="m 472.48179,1336.6657 a 265.525,265.525 0 0 1 -181.07121,-138.0982 156.94811,156.94811 0 0 1 -93.21911,11.4584 354.9352,354.9352 0 0 0 255.53721,214.1645 359.21054,359.21054 0 0 0 77.41948,7.967 156.00315,156.00315 0 0 1 -31.92236,-91.1547 c -8.97973,-0.9975 -17.94861,-2.4547 -26.74401,-4.337 z"
         id="path12-8"
         style="fill:#ffffff;fill-opacity:1" />
      <path
         class="cls-2"
         d="m 807.7978,1297.2209 a 356.70056,356.70056 0 0 0 17.87488,-418.5189 157.14405,157.14405 0 0 1 -61.30976,71.80309 267.293,267.293 0 0 1 -8.73685,265.48841 156.34662,156.34662 0 0 1 52.17173,81.2274 z"
         id="path16-3"
         style="fill:#ffffff;fill-opacity:1" />
      <path
         class="cls-2"
         d="m 218.17628,899.71905 q 4.1505,-0.2277 8.30533,-0.22553 A 157.3464,157.3464 0 0 1 309.164,923.039 265.90648,265.90648 0 0 1 523.2722,808.52964 158.08773,158.08773 0 0 1 556.3482,720.1094 C 419.24532,709.25176 286.02405,780.001 218.17628,899.71905 Z"
         id="path18"
         style="fill:#ffffff;fill-opacity:1" />
    </g>
    <g
       id="g1520"
       transform="matrix(1.8074191,1.1283346,-1.1294007,1.8057128,276.76777,-138.84036)"
       style="fill:#e9500e;fill-opacity:1;stroke:#e9500e;stroke-width:9.38851;stroke-miterlimit:4;stroke-dasharray:none;stroke-opacity:1">
      <path
         id="path1101"
         style="fill:none;fill-opacity:1;stroke:#ffffff;stroke-width:35.4841;stroke-miterlimit:4;stroke-dasharray:none;stroke-opacity:1"
         d="m 396.84961,296.69336 a 264.56693,264.56693 0 0 0 -263.64063,249.46484 132.28346,132.28346 0 0 0 -0.20117,1.27344 132.28346,132.28346 0 0 0 -0.5332,6.7832 264.56693,264.56693 0 0 1 0.41797,-4.58789 132.28346,132.28346 0 0 0 -0.60938,11.63282 132.28346,132.28346 0 0 0 0.72461,13.82812 132.28346,132.28346 0 0 0 2.16602,13.67578 132.28346,132.28346 0 0 0 3.58398,13.37305 132.28346,132.28346 0 0 0 4.96289,12.92773 132.28346,132.28346 0 0 0 6.28516,12.33789 132.28346,132.28346 0 0 0 7.54102,11.61133 132.28346,132.28346 0 0 0 8.71484,10.76172 132.28346,132.28346 0 0 0 9.79101,9.79102 132.28346,132.28346 0 0 0 10.75977,8.71289 132.28346,132.28346 0 0 0 11.61328,7.54101 132.28346,132.28346 0 0 0 12.33594,6.28711 132.28346,132.28346 0 0 0 12.92773,4.96094 132.28346,132.28346 0 0 0 13.375,3.58398 132.28346,132.28346 0 0 0 13.67578,2.16602 132.28346,132.28346 0 0 0 13.82618,0.72461 132.28346,132.28346 0 0 0 13.82812,-0.72461 132.28346,132.28346 0 0 0 13.67578,-2.16602 132.28346,132.28346 0 0 0 13.375,-3.58398 132.28346,132.28346 0 0 0 12.92578,-4.96094 132.28346,132.28346 0 0 0 12.33789,-6.28711 132.28346,132.28346 0 0 0 11.61133,-7.54101 132.28346,132.28346 0 0 0 10.76172,-8.71289 132.28346,132.28346 0 0 0 9.79102,-9.79102 132.28346,132.28346 0 0 0 8.71289,-10.76172 132.28346,132.28346 0 0 0 7.54101,-11.61133 132.28346,132.28346 0 0 0 6.28711,-12.33789 132.28346,132.28346 0 0 0 4.96289,-12.92773 132.28346,132.28346 0 0 0 3.58203,-13.37305 132.28346,132.28346 0 0 0 2.16602,-13.67578 132.28346,132.28346 0 0 0 0.72461,-13.82812 132.28346,132.28346 0 0 1 2.54297,-25.80665 132.28346,132.28346 0 0 1 7.52734,-24.8164 132.28346,132.28346 0 0 1 12.22461,-22.86914 132.28346,132.28346 0 0 1 16.45117,-20.04688 132.28346,132.28346 0 0 1 20.04492,-16.45117 132.28346,132.28346 0 0 1 22.8711,-12.22461 132.28346,132.28346 0 0 1 24.81445,-7.52734 132.28346,132.28346 0 0 1 25.8086,-2.54102 132.28346,132.28346 0 0 1 9.02734,0.3086 132.28346,132.28346 0 0 1 8.98437,0.92382 132.28346,132.28346 0 0 1 8.9004,1.53516 132.28346,132.28346 0 0 1 8.77734,2.13672 132.28346,132.28346 0 0 1 8.60937,2.73437 132.28346,132.28346 0 0 1 8.40235,3.3125 132.28346,132.28346 0 0 1 8.15625,3.87891 132.28346,132.28346 0 0 1 7.875,4.42774 132.28346,132.28346 0 0 1 7.55273,4.95312 132.28346,132.28346 0 0 1 7.19727,5.45898 132.28346,132.28346 0 0 1 6.80664,5.93555 132.28346,132.28346 0 0 1 6.38672,6.38672 132.28346,132.28346 0 0 1 5.9375,6.80859 132.28346,132.28346 0 0 1 5.45703,7.19727 132.28346,132.28346 0 0 1 4.95508,7.55273 132.28346,132.28346 0 0 1 4.42578,7.87305 132.28346,132.28346 0 0 1 3.8789,8.1582 132.28346,132.28346 0 0 1 3.31446,8.40235 132.28346,132.28346 0 0 1 2.73242,8.60937 132.28346,132.28346 0 0 1 2.13867,8.77539 132.28346,132.28346 0 0 1 1.53516,8.90235 132.28346,132.28346 0 0 1 0.14257,1.38867 264.56693,264.56693 0 0 0 -263.47851,-247.94336 z m 263.47851,247.94336 a 264.56693,264.56693 0 0 1 1.08985,16.62305 132.28346,132.28346 0 0 0 -0.30859,-9.02735 132.28346,132.28346 0 0 0 -0.78126,-7.5957 z m -263.54296,12.46484 a 132.28346,132.28346 0 0 1 0.006,0.22461 132.28346,132.28346 0 0 0 -0.006,-0.22461 z m 0.0117,0.40821 a 132.28346,132.28346 0 0 1 0.004,0.14062 132.28346,132.28346 0 0 0 -0.004,-0.14062 z m 0.0312,1.38867 a 132.28346,132.28346 0 0 1 0.006,0.33789 132.28346,132.28346 0 0 0 -0.006,-0.33789 z m 0.0117,0.69531 a 132.28346,132.28346 0 0 1 0.002,0.20508 132.28346,132.28346 0 0 0 -0.002,-0.20508 z m 0.006,0.69336 a 132.28346,132.28346 0 0 1 0.002,0.13867 132.28346,132.28346 0 0 0 -0.002,-0.13867 z"
         transform="scale(0.26458333)" />
      <path
         id="path1285"
         style="fill:url(#linearGradient2884);fill-opacity:1;stroke:#ffffff;stroke-width:35.4841;stroke-miterlimit:4;stroke-dasharray:none;stroke-opacity:1"
         d="m 529.13477,428.97656 a 132.28346,132.28346 0 0 0 -25.8086,2.54102 132.28346,132.28346 0 0 0 -24.81445,7.52734 132.28346,132.28346 0 0 0 -22.8711,12.22461 132.28346,132.28346 0 0 0 -20.04492,16.45117 132.28346,132.28346 0 0 0 -16.45117,20.04688 132.28346,132.28346 0 0 0 -12.22461,22.86914 132.28346,132.28346 0 0 0 -7.52734,24.8164 132.28346,132.28346 0 0 0 -2.54297,25.80665 132.28346,132.28346 0 0 1 -0.72461,13.82812 132.28346,132.28346 0 0 1 -2.16602,13.67578 132.28346,132.28346 0 0 1 -3.58203,13.37305 132.28346,132.28346 0 0 1 -4.96289,12.92773 132.28346,132.28346 0 0 1 -6.28711,12.33789 132.28346,132.28346 0 0 1 -7.54101,11.61133 132.28346,132.28346 0 0 1 -8.71289,10.76172 132.28346,132.28346 0 0 1 -9.79102,9.79102 132.28346,132.28346 0 0 1 -10.76172,8.71289 132.28346,132.28346 0 0 1 -11.61133,7.54101 132.28346,132.28346 0 0 1 -12.33789,6.28711 132.28346,132.28346 0 0 1 -12.92578,4.96094 132.28346,132.28346 0 0 1 -13.375,3.58398 132.28346,132.28346 0 0 1 -13.67578,2.16602 132.28346,132.28346 0 0 1 -13.82812,0.72461 132.28346,132.28346 0 0 1 -13.82618,-0.72461 132.28346,132.28346 0 0 1 -13.67578,-2.16602 132.28346,132.28346 0 0 1 -13.375,-3.58398 132.28346,132.28346 0 0 1 -12.92773,-4.96094 132.28346,132.28346 0 0 1 -12.33594,-6.28711 132.28346,132.28346 0 0 1 -11.61328,-7.54101 132.28346,132.28346 0 0 1 -10.75977,-8.71289 132.28346,132.28346 0 0 1 -9.79101,-9.79102 132.28346,132.28346 0 0 1 -8.71484,-10.76172 132.28346,132.28346 0 0 1 -7.54102,-11.61133 132.28346,132.28346 0 0 1 -6.28516,-12.33789 132.28346,132.28346 0 0 1 -4.96289,-12.92773 132.28346,132.28346 0 0 1 -3.58398,-13.37305 132.28346,132.28346 0 0 1 -1.96485,-12.40234 264.56693,264.56693 0 0 0 263.64063,249.46484 264.56693,264.56693 0 0 0 263.55078,-249.03125 132.28346,132.28346 0 0 0 0.38086,-2.57031 132.28346,132.28346 0 0 0 0.63672,-12.96484 132.28346,132.28346 0 0 0 -0.30859,-9.02735 132.28346,132.28346 0 0 0 -0.92383,-8.98437 132.28346,132.28346 0 0 0 -1.53516,-8.90235 132.28346,132.28346 0 0 0 -2.13867,-8.77539 132.28346,132.28346 0 0 0 -2.73242,-8.60937 132.28346,132.28346 0 0 0 -3.31446,-8.40235 132.28346,132.28346 0 0 0 -3.8789,-8.1582 132.28346,132.28346 0 0 0 -4.42578,-7.87305 132.28346,132.28346 0 0 0 -4.95508,-7.55273 132.28346,132.28346 0 0 0 -5.45703,-7.19727 132.28346,132.28346 0 0 0 -5.9375,-6.80859 132.28346,132.28346 0 0 0 -6.38672,-6.38672 132.28346,132.28346 0 0 0 -6.80664,-5.93555 132.28346,132.28346 0 0 0 -7.19727,-5.45898 132.28346,132.28346 0 0 0 -7.55273,-4.95312 132.28346,132.28346 0 0 0 -7.875,-4.42774 132.28346,132.28346 0 0 0 -8.15625,-3.87891 132.28346,132.28346 0 0 0 -8.40235,-3.3125 132.28346,132.28346 0 0 0 -8.60937,-2.73437 132.28346,132.28346 0 0 0 -8.77734,-2.13672 132.28346,132.28346 0 0 0 -8.9004,-1.53516 132.28346,132.28346 0 0 0 -8.98437,-0.92382 132.28346,132.28346 0 0 0 -9.02734,-0.3086 z M 133.20898,576.36133 a 264.56693,264.56693 0 0 1 -0.73437,-8.05664 132.28346,132.28346 0 0 0 0.5332,6.7832 132.28346,132.28346 0 0 0 0.20117,1.27344 z"
         transform="scale(0.26458333)" />
    </g>
  </g>
  <g
     aria-label="SSO Account"
     id="text3267"
     style="font-size:226.667px;line-height:1.25;fill:#f9f9f9;stroke-width:5.11081">
    <path
       d="m 321.89635,318.26131 q -16.54669,0 -28.33338,-3.62667 -11.78668,-3.62668 -17.68002,-7.25335 l 4.76,-12.24002 q 6.12001,3.40001 16.5467,7.02668 10.65335,3.4 24.48003,3.4 19.2667,0 29.46671,-7.02667 10.20002,-7.25335 10.20002,-22.44004 0,-9.97334 -4.76001,-16.09335 -4.53334,-6.34668 -13.14668,-10.65335 -8.61335,-4.53334 -20.40003,-9.06668 -13.82669,-5.44001 -23.34671,-11.10669 -9.52001,-5.89334 -14.28002,-13.82668 -4.76001,-7.93335 -4.76001,-19.49337 0,-13.37335 5.89335,-22.44003 5.89334,-9.06668 17.22669,-13.60002 11.33335,-4.53334 26.97337,-4.53334 12.01335,0 23.12004,3.17334 11.10668,2.94667 17.22669,6.80001 l -4.98667,12.24002 q -6.80001,-4.53334 -16.32003,-7.02668 -9.29335,-2.49334 -19.49336,-2.49334 -16.09336,0 -25.61337,6.57334 -9.29335,6.34668 -9.29335,20.40004 0,8.84001 4.30667,14.73335 4.30668,5.89334 12.46669,10.20002 8.38668,4.30667 20.17336,9.06668 13.60002,5.21334 23.3467,11.10668 9.97335,5.66667 15.41336,14.05335 5.44001,8.38668 5.44001,21.53337 0,14.05335 -6.57334,23.57337 -6.57335,9.29335 -18.81337,14.28002 -12.01335,4.76001 -29.24004,4.76001 z"
       style="font-weight:300;font-family:Ubuntu;-inkscape-font-specification:'Ubuntu Light'"
       id="path284" />
    <path
       d="m 438.85669,318.26131 q -16.54669,0 -28.33337,-3.62667 -11.78669,-3.62668 -17.68003,-7.25335 l 4.76001,-12.24002 q 6.12001,3.40001 16.54669,7.02668 10.65335,3.4 24.48004,3.4 19.26669,0 29.46671,-7.02667 10.20001,-7.25335 10.20001,-22.44004 0,-9.97334 -4.76001,-16.09335 -4.53334,-6.34668 -13.14668,-10.65335 -8.61335,-4.53334 -20.40003,-9.06668 -13.82669,-5.44001 -23.3467,-11.10669 -9.52002,-5.89334 -14.28003,-13.82668 -4.76,-7.93335 -4.76,-19.49337 0,-13.37335 5.89334,-22.44003 5.89334,-9.06668 17.22669,-13.60002 11.33335,-4.53334 26.97338,-4.53334 12.01335,0 23.12003,3.17334 11.10668,2.94667 17.22669,6.80001 l -4.98667,12.24002 q -6.80001,-4.53334 -16.32003,-7.02668 -9.29334,-2.49334 -19.49336,-2.49334 -16.09336,0 -25.61337,6.57334 -9.29335,6.34668 -9.29335,20.40004 0,8.84001 4.30668,14.73335 4.30667,5.89334 12.46668,10.20002 8.38668,4.30667 20.17337,9.06668 13.60002,5.21334 23.3467,11.10668 9.97335,5.66667 15.41335,14.05335 5.44001,8.38668 5.44001,21.53337 0,14.05335 -6.57334,23.57337 -6.57334,9.29335 -18.81336,14.28002 -12.01335,4.76001 -29.24005,4.76001 z"
       style="font-weight:300;font-family:Ubuntu;-inkscape-font-specification:'Ubuntu Light'"
       id="path286" />
    <path
       d="m 589.36375,318.26131 q -20.17336,0 -36.94672,-9.52002 -16.54669,-9.52001 -26.29337,-27.65337 -9.74668,-18.13336 -9.74668,-44.42674 0,-19.49336 5.66667,-34.68005 5.66668,-15.18669 15.64002,-25.61337 9.97335,-10.42668 23.12004,-15.64002 13.37335,-5.44001 28.56004,-5.44001 20.40003,0 36.94672,9.52001 16.5467,9.29335 26.29338,27.65338 9.97335,18.13336 9.97335,44.20006 0,26.29338 -9.97335,44.42674 -9.74668,18.13336 -26.29338,27.65337 -16.32002,9.52002 -36.94672,9.52002 z m 0,-13.14669 q 17.45336,0 30.37338,-8.16001 13.14669,-8.38668 20.40003,-23.57337 7.25335,-15.41336 7.25335,-36.72006 0,-21.08003 -7.25335,-36.26672 -7.25334,-15.41335 -20.40003,-23.57337 -12.92002,-8.38667 -30.37338,-8.38667 -17.22669,0 -30.37338,8.38667 -12.92002,8.16002 -20.17336,23.57337 -7.25334,15.18669 -7.25334,36.26672 0,21.3067 7.25334,36.72006 7.25334,15.18669 20.17336,23.57337 13.14669,8.16001 30.37338,8.16001 z"
       style="font-weight:300;font-family:Ubuntu;-inkscape-font-specification:'Ubuntu Light'"
       id="path288" />
    <path
       d="m 730.80376,315.31464 q 11.56002,-31.05338 21.53337,-57.57342 10.20001,-26.74671 20.40003,-51.00008 10.20001,-24.48004 21.53336,-48.50674 h 12.69336 q 8.38668,17.90669 15.86669,35.36005 7.70668,17.45336 14.96002,36.04006 7.48001,18.36003 15.41336,39.44006 8.16001,21.08003 17.45336,46.24007 h -15.8667 q -4.30667,-11.33335 -8.38667,-21.9867 -3.85334,-10.88002 -7.48002,-21.3067 h -77.06678 q -3.85334,10.42668 -7.93334,21.3067 -3.85334,10.65335 -7.93335,21.9867 z m 35.36006,-55.98675 h 68.22676 q -4.53334,-12.24002 -8.84001,-22.89337 -4.08001,-10.88002 -8.16001,-20.85337 -4.08001,-9.97335 -8.38668,-19.94669 -4.08001,-9.97335 -8.84001,-20.85337 -4.76001,10.88002 -9.06668,20.85337 -4.08001,9.97334 -8.16002,20.17336 -3.85334,9.97335 -8.16001,20.6267 -4.08,10.65335 -8.61334,22.89337 z"
       style="font-weight:300;font-family:Ubuntu;-inkscape-font-specification:'Ubuntu Light'"
       id="path290" />
    <path
       d="m 940.77319,317.35464 q -17.90669,0 -30.14671,-7.25334 -12.24002,-7.25335 -18.5867,-20.85337 -6.34667,-13.82669 -6.34667,-32.18671 0,-18.5867 6.34667,-32.18672 6.57335,-13.82669 18.5867,-21.53337 12.24002,-7.70667 29.01338,-7.70667 9.29334,0 17.00002,1.58667 7.93335,1.36 12.92002,4.08 l -3.62667,11.78669 q -4.53334,-2.26667 -10.65335,-3.62668 -5.89334,-1.36 -14.73336,-1.36 -19.72003,0 -30.14671,12.92002 -10.20001,12.92002 -10.20001,36.04006 0,14.73335 4.30667,25.61337 4.53334,10.65335 13.82669,16.54669 9.52001,5.66667 24.25337,5.66667 8.16001,0 15.18669,-2.04 7.25334,-2.04 10.88001,-4.08001 l 2.94667,12.01336 q -4.30667,2.49333 -13.14668,4.53334 -8.84002,2.04 -17.68003,2.04 z"
       style="font-weight:300;font-family:Ubuntu;-inkscape-font-specification:'Ubuntu Light'"
       id="path292" />
    <path
       d="m 1044.5863,317.35464 q -17.9067,0 -30.1467,-7.25334 -12.24,-7.25335 -18.58671,-20.85337 -6.34667,-13.82669 -6.34667,-32.18671 0,-18.5867 6.34667,-32.18672 6.57331,-13.82669 18.58671,-21.53337 12.24,-7.70667 29.0134,-7.70667 9.2933,0 17,1.58667 7.9333,1.36 12.92,4.08 l -3.6267,11.78669 q -4.5333,-2.26667 -10.6533,-3.62668 -5.8934,-1.36 -14.7334,-1.36 -19.72,0 -30.1467,12.92002 -10.2,12.92002 -10.2,36.04006 0,14.73335 4.3067,25.61337 4.5333,10.65335 13.8267,16.54669 9.52,5.66667 24.2533,5.66667 8.16,0 15.1867,-2.04 7.2534,-2.04 10.88,-4.08001 l 2.9467,12.01336 q -4.3067,2.49333 -13.1467,4.53334 -8.84,2.04 -17.68,2.04 z"
       style="font-weight:300;font-family:Ubuntu;-inkscape-font-specification:'Ubuntu Light'"
       id="path294" />
    <path
       d="m 1146.3594,317.58131 q -15.4133,0 -27.4267,-7.48001 -12.0134,-7.70668 -18.8134,-21.3067 -6.8,-13.82669 -6.8,-32.18672 0,-18.36003 6.8,-31.96005 6.8,-13.82668 18.8134,-21.3067 12.0134,-7.70667 27.4267,-7.70667 15.8667,0 27.8801,7.70667 12.0133,7.48002 18.5866,21.3067 6.8001,13.60002 6.8001,31.96005 0,18.36003 -6.8001,32.18672 -6.5733,13.60002 -18.5866,21.3067 -12.0134,7.48001 -27.8801,7.48001 z m 0,-12.46669 q 12.0134,0 20.6267,-5.89334 8.6134,-6.12001 13.3734,-17.00003 4.76,-10.88001 4.76,-25.61337 0,-14.73335 -4.76,-25.61337 -4.76,-10.88002 -13.3734,-16.77336 -8.6133,-6.12001 -20.6267,-6.12001 -11.7867,0 -20.4,6.12001 -8.6134,5.89334 -13.3734,16.77336 -4.76,10.88002 -4.76,25.61337 0,14.73336 4.76,25.61337 4.76,10.88002 13.3734,17.00003 8.6133,5.89334 20.4,5.89334 z"
       style="font-weight:300;font-family:Ubuntu;-inkscape-font-specification:'Ubuntu Light'"
       id="path296" />
    <path
       d="m 1277.1461,317.35464 q -17.2267,0 -27.6534,-6.12001 -10.2,-6.34668 -14.7333,-18.36003 -4.3067,-12.01335 -4.3067,-29.46671 v -65.50676 h 13.8267 v 62.33342 q 0,16.32003 3.4,26.06671 3.4,9.74668 10.88,14.05335 7.48,4.30668 20.1734,4.30668 9.0666,0 17,-0.90667 7.9333,-1.13334 11.3333,-2.26667 V 197.90113 h 13.8267 V 310.7813 q -7.2533,2.26667 -18.5867,4.53334 -11.1066,2.04 -25.16,2.04 z"
       style="font-weight:300;font-family:Ubuntu;-inkscape-font-specification:'Ubuntu Light'"
       id="path298" />
    <path
       d="M 1359.8797,315.31464 V 202.43447 q 6.8,-1.81334 17.9067,-4.08001 11.1067,-2.26667 26.2934,-2.26667 18.1333,0 28.1067,6.57334 9.9733,6.57335 14.0533,18.81337 4.0801,12.01335 4.0801,28.56004 v 65.2801 h -13.8267 v -60.74676 q 0,-16.54669 -3.1734,-26.52004 -2.9466,-10.20002 -10.4267,-14.96002 -7.2533,-4.76001 -20.6267,-4.76001 -10.2,0 -18.1333,1.58667 -7.9334,1.36 -10.4267,2.04 v 103.36016 z"
       style="font-weight:300;font-family:Ubuntu;-inkscape-font-specification:'Ubuntu Light'"
       id="path300" />
    <path
       d="m 1525.3466,317.35464 q -14.0534,0 -22.4401,-4.76001 -8.3867,-4.76001 -12.0133,-14.73335 -3.6267,-9.97335 -3.6267,-25.61338 V 163.44774 l 14.0534,-2.49334 v 37.40006 h 46.4667 v 11.78668 h -46.4667 v 63.46677 q 0,12.69335 2.9466,19.49336 2.9467,6.57334 8.3867,9.29335 5.6667,2.49333 13.6,2.49333 7.9334,0 13.8267,-1.81333 5.8934,-2.04001 9.52,-3.85334 l 2.9467,11.56002 q -3.8533,2.04 -11.3333,4.30667 -7.4801,2.26667 -15.8667,2.26667 z"
       style="font-weight:300;font-family:Ubuntu;-inkscape-font-specification:'Ubuntu Light'"
       id="path302" />
  </g>
</svg>
